solid c:\devel\machine_simulation\machine\3axes4.stl
  facet normal  0.000  0.000 -81700.000
    outer loop
      vertex -272.500 -190.000 -0.000
      vertex -272.500 190.000 -0.000
      vertex -57.500 190.000 -0.000
    endloop
  endfacet
  facet normal  0.000  0.000 -81700.000
    outer loop
      vertex -57.500 190.000 -0.000
      vertex -57.500 -190.000 -0.000
      vertex -272.500 -190.000 -0.000
    endloop
  endfacet
  facet normal  0.000  0.000 -43700.000
    outer loop
      vertex 57.500 190.000 -0.000
      vertex -57.500 -190.000 -0.000
      vertex -57.500 190.000 -0.000
    endloop
  endfacet
  facet normal  0.000  0.000 -43700.000
    outer loop
      vertex 57.500 190.000 -0.000
      vertex 57.500 -190.000 -0.000
      vertex -57.500 -190.000 -0.000
    endloop
  endfacet
  facet normal  0.000  0.000 -8050.000
    outer loop
      vertex 57.500 190.000 -0.000
      vertex -57.500 190.000 -0.000
      vertex -57.500 260.000 -0.000
    endloop
  endfacet
  facet normal  0.000  0.000 -64600.000
    outer loop
      vertex 57.500 -190.000 -0.000
      vertex 57.500 190.000 -0.000
      vertex 227.500 190.000 -0.000
    endloop
  endfacet
  facet normal  0.000  0.000 -8050.000
    outer loop
      vertex -57.500 -190.000 -0.000
      vertex 57.500 -190.000 -0.000
      vertex 57.500 -260.000 -0.000
    endloop
  endfacet
  facet normal  0.000  0.000 -8050.000
    outer loop
      vertex -57.500 260.000 -0.000
      vertex 57.500 260.000 -0.000
      vertex 57.500 190.000 -0.000
    endloop
  endfacet
  facet normal  0.000  0.000 -64600.000
    outer loop
      vertex 227.500 190.000 -0.000
      vertex 227.500 -190.000 -0.000
      vertex 57.500 -190.000 -0.000
    endloop
  endfacet
  facet normal  0.000  0.000 -8050.000
    outer loop
      vertex 57.500 -260.000 -0.000
      vertex -57.500 -260.000 -0.000
      vertex -57.500 -190.000 -0.000
    endloop
  endfacet
  facet normal  0.000  0.000 -81700.000
    outer loop
      vertex -272.500 -190.000 2010.000
      vertex -272.500 190.000 2010.000
      vertex -57.500 190.000 2010.000
    endloop
  endfacet
  facet normal  0.000  0.000 -81700.000
    outer loop
      vertex -57.500 190.000 2010.000
      vertex -57.500 -190.000 2010.000
      vertex -272.500 -190.000 2010.000
    endloop
  endfacet
  facet normal  0.000  0.000 -43700.000
    outer loop
      vertex 57.500 190.000 2010.000
      vertex -57.500 -190.000 2010.000
      vertex -57.500 190.000 2010.000
    endloop
  endfacet
  facet normal  0.000  0.000 -43700.000
    outer loop
      vertex 57.500 190.000 2010.000
      vertex 57.500 -190.000 2010.000
      vertex -57.500 -190.000 2010.000
    endloop
  endfacet
  facet normal  0.000  0.000 -8050.000
    outer loop
      vertex 57.500 190.000 2010.000
      vertex -57.500 190.000 2010.000
      vertex -57.500 260.000 2010.000
    endloop
  endfacet
  facet normal  0.000  0.000 -64600.000
    outer loop
      vertex 57.500 -190.000 2010.000
      vertex 57.500 190.000 2010.000
      vertex 227.500 190.000 2010.000
    endloop
  endfacet
  facet normal  0.000  0.000 -8050.000
    outer loop
      vertex -57.500 -190.000 2010.000
      vertex 57.500 -190.000 2010.000
      vertex 57.500 -260.000 2010.000
    endloop
  endfacet
  facet normal  0.000  0.000 -8050.000
    outer loop
      vertex -57.500 260.000 2010.000
      vertex 57.500 260.000 2010.000
      vertex 57.500 190.000 2010.000
    endloop
  endfacet
  facet normal  0.000  0.000 -64600.000
    outer loop
      vertex 227.500 190.000 2010.000
      vertex 227.500 -190.000 2010.000
      vertex 57.500 -190.000 2010.000
    endloop
  endfacet
  facet normal  0.000  0.000 -8050.000
    outer loop
      vertex 57.500 -260.000 2010.000
      vertex -57.500 -260.000 2010.000
      vertex -57.500 -190.000 2010.000
    endloop
  endfacet
  facet normal -572849.500  0.000  0.000
    outer loop
      vertex -272.500 189.998 2010.000
      vertex -272.500 189.998  0.000
      vertex -272.500 -95.002  0.000
    endloop
  endfacet
  facet normal -763796.000  0.000  0.000
    outer loop
      vertex -272.500 189.998 2010.000
      vertex -272.500 -95.002  0.000
      vertex -272.500 -190.000 2010.000
    endloop
  endfacet
  facet normal -143212.375  0.000  0.000
    outer loop
      vertex -272.500 -166.252  0.000
      vertex -272.500 -190.000 2010.000
      vertex -272.500 -95.002  0.000
    endloop
  endfacet
  facet normal -47734.125 -13506.527 -159.581
    outer loop
      vertex -272.500 -190.000 2010.000
      vertex -272.500 -166.252  0.000
      vertex -265.780 -190.000  0.000
    endloop
  endfacet
  facet normal  0.000 -40514.094  0.000
    outer loop
      vertex -245.624 -190.000  0.000
      vertex -272.500 -190.000 2010.000
      vertex -265.780 -190.000  0.000
    endloop
  endfacet
  facet normal  0.000 -162056.063  0.000
    outer loop
      vertex -272.500 -190.000 2010.000
      vertex -245.624 -190.000  0.000
      vertex -164.999 -190.000  0.000
    endloop
  endfacet
  facet normal  0.000 -432150.000  0.000
    outer loop
      vertex -272.500 -190.000 2010.000
      vertex -164.999 -190.000  0.000
      vertex -57.500 -190.000 2010.000
    endloop
  endfacet
  facet normal  0.000 -162056.094  0.000
    outer loop
      vertex -84.374 -190.000  0.000
      vertex -57.500 -190.000 2010.000
      vertex -164.999 -190.000  0.000
    endloop
  endfacet
  facet normal  0.031 -27009.314 -0.000
    outer loop
      vertex -61.979 -190.000 670.000
      vertex -57.500 -190.000 2010.000
      vertex -84.374 -190.000  0.000
    endloop
  endfacet
  facet normal -5862.858 -9002.153 19.595
    outer loop
      vertex -61.979 -190.000 670.000
      vertex -57.500 -194.375  0.000
      vertex -57.500 -190.000 2010.000
    endloop
  endfacet
  facet normal -2931.414 -18005.734 97.986
    outer loop
      vertex -61.979 -190.000 670.000
      vertex -84.374 -190.000  0.000
      vertex -57.500 -194.375  0.000
    endloop
  endfacet
  facet normal -26381.219  0.000  0.000
    outer loop
      vertex -57.500 -207.500  0.000
      vertex -57.500 -190.000 2010.000
      vertex -57.500 -194.375  0.000
    endloop
  endfacet
  facet normal -140699.969  0.000  0.000
    outer loop
      vertex -57.500 -190.000 2010.000
      vertex -57.500 -207.500  0.000
      vertex -57.500 -260.000 2010.000
    endloop
  endfacet
  facet normal -105524.508 -0.613 -0.016
    outer loop
      vertex -57.500 -260.000 2010.000
      vertex -57.500 -207.500  0.000
      vertex -57.500 -260.000  0.000
    endloop
  endfacet
  facet normal  0.000 -173362.500  0.000
    outer loop
      vertex -57.500 -260.000 2010.000
      vertex -57.500 -260.000  0.000
      vertex 28.750 -260.000 2010.000
    endloop
  endfacet
  facet normal  0.000 -173362.328  0.000
    outer loop
      vertex 28.750 -260.000  0.000
      vertex 28.750 -260.000 2010.000
      vertex -57.500 -260.000  0.000
    endloop
  endfacet
  facet normal  0.000 -43340.629  0.000
    outer loop
      vertex 28.750 -260.000 2010.000
      vertex 28.750 -260.000  0.000
      vertex 50.312 -260.000 2010.000
    endloop
  endfacet
  facet normal  0.000 -43340.633  0.000
    outer loop
      vertex 50.312 -260.000 2010.000
      vertex 28.750 -260.000  0.000
      vertex 50.313 -260.000  0.000
    endloop
  endfacet
  facet normal 4396.875 -14446.875  0.000
    outer loop
      vertex 50.312 -260.000 2010.000
      vertex 50.313 -260.000  0.000
      vertex 57.500 -257.812 2010.000
    endloop
  endfacet
  facet normal 4397.120 -14446.431 -0.001
    outer loop
      vertex 57.500 -257.812  0.000
      vertex 57.500 -257.812 2010.000
      vertex 50.313 -260.000  0.000
    endloop
  endfacet
  facet normal 13190.625  0.000  0.000
    outer loop
      vertex 57.500 -257.812 2010.000
      vertex 57.500 -257.812  0.000
      vertex 57.500 -251.250 2010.000
    endloop
  endfacet
  facet normal 13190.625  0.000  0.000
    outer loop
      vertex 57.500 -251.250 2010.000
      vertex 57.500 -257.812  0.000
      vertex 57.500 -251.250  0.000
    endloop
  endfacet
  facet normal 52762.500  0.000  0.000
    outer loop
      vertex 57.500 -251.250 2010.000
      vertex 57.500 -251.250  0.000
      vertex 57.500 -225.000 2010.000
    endloop
  endfacet
  facet normal 52762.438  0.000  0.000
    outer loop
      vertex 57.500 -225.000  0.000
      vertex 57.500 -225.000 2010.000
      vertex 57.500 -251.250  0.000
    endloop
  endfacet
  facet normal 52762.469  0.000  0.000
    outer loop
      vertex 57.500 -198.750 2010.000
      vertex 57.500 -225.000 2010.000
      vertex 57.500 -225.000  0.000
    endloop
  endfacet
  facet normal 52762.438  0.000  0.000
    outer loop
      vertex 57.500 -198.750 2010.000
      vertex 57.500 -225.000  0.000
      vertex 57.500 -198.750  0.000
    endloop
  endfacet
  facet normal 13190.625  0.000  0.000
    outer loop
      vertex 57.500 -192.187 2010.000
      vertex 57.500 -198.750 2010.000
      vertex 57.500 -198.750  0.000
    endloop
  endfacet
  facet normal 13190.595  0.000  0.000
    outer loop
      vertex 57.500 -192.187 2010.000
      vertex 57.500 -198.750  0.000
      vertex 57.500 -192.187  0.000
    endloop
  endfacet
  facet normal 4396.875 -21356.250 -0.001
    outer loop
      vertex 57.500 -192.187 2010.000
      vertex 57.500 -192.187  0.000
      vertex 68.125 -190.000 2010.000
    endloop
  endfacet
  facet normal 4396.752 -21356.572  0.000
    outer loop
      vertex 57.500 -192.187  0.000
      vertex 68.125 -190.000  0.000
      vertex 68.125 -190.000 2010.000
    endloop
  endfacet
  facet normal  0.000 -64068.750  0.000
    outer loop
      vertex 68.125 -190.000  0.000
      vertex 100.000 -190.000 2010.000
      vertex 68.125 -190.000 2010.000
    endloop
  endfacet
  facet normal  0.031 -64068.750 -0.000
    outer loop
      vertex 100.000 -190.000 2010.000
      vertex 68.125 -190.000  0.000
      vertex 100.000 -190.000  0.000
    endloop
  endfacet
  facet normal  0.000 -256275.016 -0.002
    outer loop
      vertex 100.000 -190.000  0.000
      vertex 227.500 -190.000 2010.000
      vertex 100.000 -190.000 2010.000
    endloop
  endfacet
  facet normal -0.031 -256274.688  0.000
    outer loop
      vertex 100.000 -190.000  0.000
      vertex 227.500 -190.000  0.000
      vertex 227.500 -190.000 2010.000
    endloop
  endfacet
  facet normal 572850.000  0.000  0.000
    outer loop
      vertex 227.500 95.000 2010.000
      vertex 227.500 -190.000  0.000
      vertex 227.500 95.000  0.000
    endloop
  endfacet
  facet normal 572849.250  0.000  0.000
    outer loop
      vertex 227.500 -190.000 2010.000
      vertex 227.500 -190.000  0.000
      vertex 227.500 95.000 2010.000
    endloop
  endfacet
  facet normal 143212.109  0.000  0.000
    outer loop
      vertex 227.500 95.000 2010.000
      vertex 227.500 95.000  0.000
      vertex 227.500 166.249 2010.000
    endloop
  endfacet
  facet normal 143212.500  0.000  0.000
    outer loop
      vertex 227.500 166.250  0.000
      vertex 227.500 166.249 2010.000
      vertex 227.500 95.000  0.000
    endloop
  endfacet
  facet normal 35803.125  0.000  0.000
    outer loop
      vertex 227.500 166.249 2010.000
      vertex 227.500 166.250  0.000
      vertex 227.500 184.063  0.000
    endloop
  endfacet
  facet normal 47738.605 10677.480 94.626
    outer loop
      vertex 222.188 190.000 2010.000
      vertex 227.500 166.249 2010.000
      vertex 227.500 184.063  0.000
    endloop
  endfacet
  facet normal 11934.375 10678.125 -0.002
    outer loop
      vertex 227.500 184.063  0.000
      vertex 222.188 190.000  0.000
      vertex 222.188 190.000 2010.000
    endloop
  endfacet
  facet normal  0.000 32034.375  0.000
    outer loop
      vertex 222.188 190.000  0.000
      vertex 206.250 190.000 2010.000
      vertex 222.188 190.000 2010.000
    endloop
  endfacet
  facet normal  0.000 32034.375  0.000
    outer loop
      vertex 206.250 190.000 2010.000
      vertex 222.188 190.000  0.000
      vertex 206.250 190.000  0.000
    endloop
  endfacet
  facet normal  0.000 128137.344  0.000
    outer loop
      vertex 206.250 190.000  0.000
      vertex 142.500 190.000 2010.000
      vertex 206.250 190.000 2010.000
    endloop
  endfacet
  facet normal  0.000 128137.500  0.000
    outer loop
      vertex 206.250 190.000  0.000
      vertex 142.500 190.000  0.000
      vertex 142.500 190.000 2010.000
    endloop
  endfacet
  facet normal  0.000 128137.328  0.000
    outer loop
      vertex 142.500 190.000  0.000
      vertex 78.750 190.000 2010.000
      vertex 142.500 190.000 2010.000
    endloop
  endfacet
  facet normal  0.000 128137.516  0.000
    outer loop
      vertex 78.750 190.000 2010.000
      vertex 142.500 190.000  0.000
      vertex 78.750 190.000  0.000
    endloop
  endfacet
  facet normal  0.000 32034.215  0.000
    outer loop
      vertex 62.813 190.000 1005.000
      vertex 78.750 190.000 2010.000
      vertex 78.750 190.000  0.000
    endloop
  endfacet
  facet normal 4396.599 21356.740 -69.723
    outer loop
      vertex 62.813 190.000 1005.000
      vertex 57.500 194.375 2010.000
      vertex 78.750 190.000 2010.000
    endloop
  endfacet
  facet normal 4396.875 21356.250 69.725
    outer loop
      vertex 62.813 190.000 1005.000
      vertex 78.750 190.000  0.000
      vertex 57.500 194.375  0.000
    endloop
  endfacet
  facet normal 8793.474 10678.776  0.001
    outer loop
      vertex 62.813 190.000 1005.000
      vertex 57.500 194.375  0.000
      vertex 57.500 194.375 2010.000
    endloop
  endfacet
  facet normal 26381.281  0.000  0.000
    outer loop
      vertex 57.500 194.375  0.000
      vertex 57.500 207.500 2010.000
      vertex 57.500 194.375 2010.000
    endloop
  endfacet
  facet normal 26381.281  0.000  0.000
    outer loop
      vertex 57.500 207.500 2010.000
      vertex 57.500 194.375  0.000
      vertex 57.500 207.500  0.000
    endloop
  endfacet
  facet normal 105524.875  0.000  0.000
    outer loop
      vertex 57.500 207.500  0.000
      vertex 57.500 260.000 2010.000
      vertex 57.500 207.500 2010.000
    endloop
  endfacet
  facet normal 105525.000  0.000  0.000
    outer loop
      vertex 57.500 207.500  0.000
      vertex 57.500 260.000  0.000
      vertex 57.500 260.000 2010.000
    endloop
  endfacet
  facet normal  0.675 173361.172  0.029
    outer loop
      vertex 57.500 260.000  0.000
      vertex -28.749 260.000 2010.000
      vertex 57.500 260.000 2010.000
    endloop
  endfacet
  facet normal  0.000 231150.000  0.000
    outer loop
      vertex -28.749 260.000 2010.000
      vertex 57.500 260.000  0.000
      vertex -57.500 260.000  0.000
    endloop
  endfacet
  facet normal  0.000 43340.633  0.000
    outer loop
      vertex -57.500 260.000  0.000
      vertex -50.312 260.000 2010.000
      vertex -28.749 260.000 2010.000
    endloop
  endfacet
  facet normal -4396.078 14448.193 15.721
    outer loop
      vertex -57.500 260.000  0.000
      vertex -57.500 257.813 2010.000
      vertex -50.312 260.000 2010.000
    endloop
  endfacet
  facet normal -13190.472  0.000  0.000
    outer loop
      vertex -57.500 260.000  0.000
      vertex -57.500 251.251 2010.000
      vertex -57.500 257.813 2010.000
    endloop
  endfacet
  facet normal -52762.406  0.000  0.000
    outer loop
      vertex -57.500 260.000  0.000
      vertex -57.500 225.001 2010.000
      vertex -57.500 251.251 2010.000
    endloop
  endfacet
  facet normal -140700.031  0.000  0.000
    outer loop
      vertex -57.500 260.000  0.000
      vertex -57.500 190.000  0.000
      vertex -57.500 225.001 2010.000
    endloop
  endfacet
  facet normal -52762.500  0.000  0.000
    outer loop
      vertex -57.500 190.000  0.000
      vertex -57.500 198.751 2010.000
      vertex -57.500 225.001 2010.000
    endloop
  endfacet
  facet normal -13190.625  0.000  0.000
    outer loop
      vertex -57.500 190.000  0.000
      vertex -57.500 192.188 2010.000
      vertex -57.500 198.751 2010.000
    endloop
  endfacet
  facet normal -4397.948 27006.078 -29.398
    outer loop
      vertex -57.500 190.000  0.000
      vertex -70.936 190.000 2010.000
      vertex -57.500 192.188 2010.000
    endloop
  endfacet
  facet normal  0.000 81027.695  0.000
    outer loop
      vertex -57.500 190.000  0.000
      vertex -111.248 190.000 2010.000
      vertex -70.936 190.000 2010.000
    endloop
  endfacet
  facet normal  0.000 432145.875  0.000
    outer loop
      vertex -57.500 190.000  0.000
      vertex -272.498 190.000  0.000
      vertex -111.248 190.000 2010.000
    endloop
  endfacet
  facet normal  0.000 324112.094  0.000
    outer loop
      vertex -272.498 190.000  0.000
      vertex -272.498 190.000 2010.000
      vertex -111.248 190.000 2010.000
    endloop
  endfacet
endsolid c:\devel\machine_simulation\machine\3axes4.stl
