solid c:\devel\machine_simulation\machine\mecof3.stl
  facet normal  0.000 202500.000  0.000
    outer loop
      vertex 225.000  0.000 225.000
      vertex -225.000  0.000 -225.000
      vertex -225.000  0.000 225.000
    endloop
  endfacet
  facet normal  0.000 202500.000  0.000
    outer loop
      vertex -225.000  0.000 -225.000
      vertex 225.000  0.000 225.000
      vertex 225.000  0.000 -225.000
    endloop
  endfacet
  facet normal  0.000  0.000 -1260000.000
    outer loop
      vertex 225.000 2800.000 -225.000
      vertex -225.000  0.000 -225.000
      vertex -225.000 2800.000 -225.000
    endloop
  endfacet
  facet normal  0.000  0.000 -1260000.000
    outer loop
      vertex -225.000  0.000 -225.000
      vertex 225.000 2800.000 -225.000
      vertex 225.000  0.000 -225.000
    endloop
  endfacet
  facet normal  0.000 202500.000  0.000
    outer loop
      vertex -225.000 2800.000 -225.000
      vertex 225.000 2800.000 225.000
      vertex 225.000 2800.000 -225.000
    endloop
  endfacet
  facet normal  0.000 202500.000  0.000
    outer loop
      vertex 225.000 2800.000 225.000
      vertex -225.000 2800.000 -225.000
      vertex -225.000 2800.000 225.000
    endloop
  endfacet
  facet normal 1260000.000  0.000  0.000
    outer loop
      vertex 225.000 2800.000 225.000
      vertex 225.000  0.000 -225.000
      vertex 225.000 2800.000 -225.000
    endloop
  endfacet
  facet normal -1260000.000  0.000  0.000
    outer loop
      vertex -225.000 2800.000 -225.000
      vertex -225.000  0.000 225.000
      vertex -225.000 2800.000 225.000
    endloop
  endfacet
  facet normal  0.000  0.000 1260000.000
    outer loop
      vertex -225.000 2800.000 225.000
      vertex 225.000  0.000 225.000
      vertex 225.000 2800.000 225.000
    endloop
  endfacet
  facet normal 1260000.000  0.000  0.000
    outer loop
      vertex 225.000  0.000 -225.000
      vertex 225.000 2800.000 225.000
      vertex 225.000  0.000 225.000
    endloop
  endfacet
  facet normal -1260000.000  0.000  0.000
    outer loop
      vertex -225.000  0.000 225.000
      vertex -225.000 2800.000 -225.000
      vertex -225.000  0.000 -225.000
    endloop
  endfacet
  facet normal  0.000  0.000 1260000.000
    outer loop
      vertex 225.000  0.000 225.000
      vertex -225.000 2800.000 225.000
      vertex -225.000  0.000 225.000
    endloop
  endfacet
endsolid c:\devel\machine_simulation\machine\mecof3.stl
