solid c:\devel\machine_def\machine6.stl
  facet normal 58.980 14.540 -0.240
    outer loop
      vertex -30.886 -6.147  0.000
      vertex -31.036 -5.208 20.000
      vertex -30.309 -8.157 20.000
    endloop
  endfacet
  facet normal 73.760  7.260  0.212
    outer loop
      vertex -30.886 -6.147  0.000
      vertex -31.399 -1.520 20.000
      vertex -31.036 -5.208 20.000
    endloop
  endfacet
  facet normal  0.000  0.000 -1.611
    outer loop
      vertex -30.309 -8.157 20.000
      vertex -31.036 -5.208 20.000
      vertex -31.399 -1.520 20.000
    endloop
  endfacet
  facet normal 118.200 35.900  0.198
    outer loop
      vertex -30.309 -8.157 20.000
      vertex -29.091 -12.057  0.000
      vertex -30.886 -6.147  0.000
    endloop
  endfacet
  facet normal 122.900 12.100  0.353
    outer loop
      vertex -31.399 -1.520 20.000
      vertex -30.886 -6.147  0.000
      vertex -31.491 -0.002  0.000
    endloop
  endfacet
  facet normal  0.000  0.000 -3.310
    outer loop
      vertex -30.309 -8.157 20.000
      vertex -31.399 -1.520 20.000
      vertex -31.399  1.517 20.000
    endloop
  endfacet
  facet normal 70.900 21.540  0.118
    outer loop
      vertex -29.091 -12.057  0.000
      vertex -30.309 -8.157 20.000
      vertex -29.232 -11.702 20.000
    endloop
  endfacet
  facet normal  0.000  0.000  7.455
    outer loop
      vertex -31.491 -0.002  0.000
      vertex -30.886 -6.147  0.000
      vertex -29.091 -12.057  0.000
    endloop
  endfacet
  facet normal 60.740  0.000 -0.279
    outer loop
      vertex -31.491 -0.002  0.000
      vertex -31.399  1.517 20.000
      vertex -31.399 -1.520 20.000
    endloop
  endfacet
  facet normal  0.000  0.000 -17.778
    outer loop
      vertex -30.309 -8.157 20.000
      vertex -31.399  1.517 20.000
      vertex -30.309  8.153 20.000
    endloop
  endfacet
  facet normal  0.000  0.000 -2.105
    outer loop
      vertex -27.821 -14.392 20.000
      vertex -29.232 -11.702 20.000
      vertex -30.309 -8.157 20.000
    endloop
  endfacet
  facet normal 53.800 28.220 -0.122
    outer loop
      vertex -29.091 -12.057  0.000
      vertex -29.232 -11.702 20.000
      vertex -27.821 -14.392 20.000
    endloop
  endfacet
  facet normal  0.000  0.000 57.850
    outer loop
      vertex -29.092 12.052  0.000
      vertex -31.491 -0.002  0.000
      vertex -29.091 -12.057  0.000
    endloop
  endfacet
  facet normal 73.740 -7.260  0.212
    outer loop
      vertex -31.491 -0.002  0.000
      vertex -31.036  5.204 20.000
      vertex -31.399  1.517 20.000
    endloop
  endfacet
  facet normal  0.000  0.000 -1.610
    outer loop
      vertex -31.399  1.517 20.000
      vertex -31.036  5.204 20.000
      vertex -30.309  8.153 20.000
    endloop
  endfacet
  facet normal  0.000  0.000 -40.579
    outer loop
      vertex -27.821 -14.392 20.000
      vertex -30.309 -8.157 20.000
      vertex -30.309  8.153 20.000
    endloop
  endfacet
  facet normal 108.900 58.140 -0.127
    outer loop
      vertex -27.821 -14.392 20.000
      vertex -26.184 -17.502  0.000
      vertex -29.091 -12.057  0.000
    endloop
  endfacet
  facet normal  0.000  0.000  7.449
    outer loop
      vertex -29.092 12.052  0.000
      vertex -30.886  6.143  0.000
      vertex -31.491 -0.002  0.000
    endloop
  endfacet
  facet normal  0.000  0.000 279.968
    outer loop
      vertex -17.480 26.192  0.000
      vertex -29.092 12.052  0.000
      vertex -29.091 -12.057  0.000
    endloop
  endfacet
  facet normal 122.900 -12.100  0.354
    outer loop
      vertex -31.036  5.204 20.000
      vertex -31.491 -0.002  0.000
      vertex -30.886  6.143  0.000
    endloop
  endfacet
  facet normal 58.980 -14.540 -0.240
    outer loop
      vertex -30.886  6.143  0.000
      vertex -30.309  8.153 20.000
      vertex -31.036  5.204 20.000
    endloop
  endfacet
  facet normal  0.000  0.000 -71.605
    outer loop
      vertex -27.821 -14.392 20.000
      vertex -30.309  8.153 20.000
      vertex -27.821 14.388 20.000
    endloop
  endfacet
  facet normal 65.340 34.880 -0.076
    outer loop
      vertex -26.184 -17.502  0.000
      vertex -27.821 -14.392 20.000
      vertex -26.077 -17.659 20.000
    endloop
  endfacet
  facet normal  0.000  0.000 22.125
    outer loop
      vertex -29.091 -12.057  0.000
      vertex -26.184 -17.502  0.000
      vertex -17.479 -26.196  0.000
    endloop
  endfacet
  facet normal 118.180 -35.880  0.200
    outer loop
      vertex -29.233 11.699 20.000
      vertex -30.886  6.143  0.000
      vertex -29.092 12.052  0.000
    endloop
  endfacet
  facet normal  0.000  0.000 22.122
    outer loop
      vertex -17.480 26.192  0.000
      vertex -26.185 17.497  0.000
      vertex -29.092 12.052  0.000
    endloop
  endfacet
  facet normal  0.000  0.000 608.315
    outer loop
      vertex -17.480 26.192  0.000
      vertex -29.091 -12.057  0.000
      vertex -17.479 -26.196  0.000
    endloop
  endfacet
  facet normal 70.920 -21.520  0.117
    outer loop
      vertex -30.886  6.143  0.000
      vertex -29.233 11.699 20.000
      vertex -30.309  8.153 20.000
    endloop
  endfacet
  facet normal  0.000  0.000 -2.114
    outer loop
      vertex -30.309  8.153 20.000
      vertex -29.233 11.699 20.000
      vertex -27.821 14.388 20.000
    endloop
  endfacet
  facet normal  0.000  0.000 -1601.866
    outer loop
      vertex 27.838 14.388 20.000
      vertex -27.821 -14.392 20.000
      vertex -27.821 14.388 20.000
    endloop
  endfacet
  facet normal  0.000  0.000 -2.681
    outer loop
      vertex -23.728 -20.522 20.000
      vertex -26.077 -17.659 20.000
      vertex -27.821 -14.392 20.000
    endloop
  endfacet
  facet normal 95.440 78.300  0.104
    outer loop
      vertex -26.077 -17.659 20.000
      vertex -22.269 -22.274  0.000
      vertex -26.184 -17.502  0.000
    endloop
  endfacet
  facet normal  0.000  0.000  7.503
    outer loop
      vertex -26.184 -17.502  0.000
      vertex -22.269 -22.274  0.000
      vertex -17.479 -26.196  0.000
    endloop
  endfacet
  facet normal 53.780 -28.240 -0.119
    outer loop
      vertex -29.092 12.052  0.000
      vertex -27.821 14.388 20.000
      vertex -29.233 11.699 20.000
    endloop
  endfacet
  facet normal  0.000  0.000  7.508
    outer loop
      vertex -17.480 26.192  0.000
      vertex -22.270 22.270  0.000
      vertex -26.185 17.497  0.000
    endloop
  endfacet
  facet normal 108.900 -58.140 -0.129
    outer loop
      vertex -26.077 17.655 20.000
      vertex -29.092 12.052  0.000
      vertex -26.185 17.497  0.000
    endloop
  endfacet
  facet normal  0.000  0.000 590.941
    outer loop
      vertex -6.200 30.875  0.000
      vertex -17.480 26.192  0.000
      vertex -17.479 -26.196  0.000
    endloop
  endfacet
  facet normal  0.000  0.000 -1601.866
    outer loop
      vertex 27.838 14.388 20.000
      vertex 27.838 -14.392 20.000
      vertex -27.821 -14.392 20.000
    endloop
  endfacet
  facet normal  0.000  0.000 -931.509
    outer loop
      vertex -27.821 14.388 20.000
      vertex  3.733 31.124 20.000
      vertex 27.838 14.388 20.000
    endloop
  endfacet
  facet normal 57.260 46.980  0.062
    outer loop
      vertex -22.269 -22.274  0.000
      vertex -26.077 -17.659 20.000
      vertex -23.728 -20.522 20.000
    endloop
  endfacet
  facet normal  0.000  0.000 -79.263
    outer loop
      vertex -3.716 -31.128 20.000
      vertex -23.728 -20.522 20.000
      vertex -27.821 -14.392 20.000
    endloop
  endfacet
  facet normal 78.440 95.800  0.324
    outer loop
      vertex -21.714 -22.796 20.000
      vertex -17.479 -26.196  0.000
      vertex -22.269 -22.274  0.000
    endloop
  endfacet
  facet normal 65.340 -34.880 -0.078
    outer loop
      vertex -29.092 12.052  0.000
      vertex -26.077 17.655 20.000
      vertex -27.821 14.388 20.000
    endloop
  endfacet
  facet normal 78.440 -95.800  0.324
    outer loop
      vertex -18.840 25.146 20.000
      vertex -22.270 22.270  0.000
      vertex -17.480 26.192  0.000
    endloop
  endfacet
  facet normal 95.460 -78.300  0.104
    outer loop
      vertex -23.728 20.519 20.000
      vertex -26.185 17.497  0.000
      vertex -22.270 22.270  0.000
    endloop
  endfacet
  facet normal 57.280 -46.980  0.062
    outer loop
      vertex -26.185 17.497  0.000
      vertex -23.728 20.519 20.000
      vertex -26.077 17.655 20.000
    endloop
  endfacet
  facet normal  0.000  0.000  7.337
    outer loop
      vertex -6.200 30.875  0.000
      vertex -12.035 29.103  0.000
      vertex -17.480 26.192  0.000
    endloop
  endfacet
  facet normal  0.000  0.000 696.580
    outer loop
      vertex -6.200 30.875  0.000
      vertex -17.479 -26.196  0.000
      vertex -6.199 -30.879  0.000
    endloop
  endfacet
  facet normal  0.000  0.000 -71.605
    outer loop
      vertex 27.838 14.388 20.000
      vertex 30.326  8.153 20.000
      vertex 27.838 -14.392 20.000
    endloop
  endfacet
  facet normal  0.000  0.000 -931.509
    outer loop
      vertex 27.838 -14.392 20.000
      vertex  3.733 -31.128 20.000
      vertex -27.821 -14.392 20.000
    endloop
  endfacet
  facet normal  0.000  0.000 -124.683
    outer loop
      vertex -27.821 14.388 20.000
      vertex -3.717 31.124 20.000
      vertex  3.733 31.124 20.000
    endloop
  endfacet
  facet normal  0.000  0.000 -79.287
    outer loop
      vertex  3.733 31.124 20.000
      vertex 23.745 20.519 20.000
      vertex 27.838 14.388 20.000
    endloop
  endfacet
  facet normal 45.480 40.280 -0.211
    outer loop
      vertex -22.269 -22.274  0.000
      vertex -23.728 -20.522 20.000
      vertex -21.714 -22.796 20.000
    endloop
  endfacet
  facet normal  0.000  0.000 -40.502
    outer loop
      vertex -3.716 -31.128 20.000
      vertex -10.233 -29.698 20.000
      vertex -23.728 -20.522 20.000
    endloop
  endfacet
  facet normal  0.000  0.000 -124.666
    outer loop
      vertex  3.733 -31.128 20.000
      vertex -3.716 -31.128 20.000
      vertex -27.821 -14.392 20.000
    endloop
  endfacet
  facet normal 47.060 57.500  0.190
    outer loop
      vertex -17.479 -26.196  0.000
      vertex -21.714 -22.796 20.000
      vertex -18.839 -25.149 20.000
    endloop
  endfacet
  facet normal  0.000  0.000 -2.679
    outer loop
      vertex -27.821 14.388 20.000
      vertex -26.077 17.655 20.000
      vertex -23.728 20.519 20.000
    endloop
  endfacet
  facet normal 47.060 -57.480  0.195
    outer loop
      vertex -22.270 22.270  0.000
      vertex -18.840 25.146 20.000
      vertex -21.714 22.793 20.000
    endloop
  endfacet
  facet normal 34.500 -50.000 -0.269
    outer loop
      vertex -17.480 26.192  0.000
      vertex -16.340 26.871 20.000
      vertex -18.840 25.146 20.000
    endloop
  endfacet
  facet normal 45.480 -40.280 -0.211
    outer loop
      vertex -22.270 22.270  0.000
      vertex -21.714 22.793 20.000
      vertex -23.728 20.519 20.000
    endloop
  endfacet
  facet normal 35.440 -116.700  0.260
    outer loop
      vertex -6.732 30.758 20.000
      vertex -12.035 29.103  0.000
      vertex -6.200 30.875  0.000
    endloop
  endfacet
  facet normal 58.220 -108.900  0.381
    outer loop
      vertex -13.073 28.618 20.000
      vertex -17.480 26.192  0.000
      vertex -12.035 29.103  0.000
    endloop
  endfacet
  facet normal  0.000  0.000  7.337
    outer loop
      vertex -17.479 -26.196  0.000
      vertex -12.034 -29.107  0.000
      vertex -6.199 -30.879  0.000
    endloop
  endfacet
  facet normal  0.000  0.000 766.676
    outer loop
      vertex  6.216 -30.879  0.000
      vertex -6.200 30.875  0.000
      vertex -6.199 -30.879  0.000
    endloop
  endfacet
  facet normal  0.000  0.000 -2.105
    outer loop
      vertex 27.838 14.388 20.000
      vertex 29.249 11.698 20.000
      vertex 30.326  8.153 20.000
    endloop
  endfacet
  facet normal  0.000  0.000 -40.579
    outer loop
      vertex 30.326  8.153 20.000
      vertex 30.326 -8.157 20.000
      vertex 27.838 -14.392 20.000
    endloop
  endfacet
  facet normal  0.000  0.000 -79.287
    outer loop
      vertex 27.838 -14.392 20.000
      vertex 23.745 -20.523 20.000
      vertex  3.733 -31.128 20.000
    endloop
  endfacet
  facet normal  0.000  0.000 -79.281
    outer loop
      vertex -27.821 14.388 20.000
      vertex -23.728 20.519 20.000
      vertex -3.717 31.124 20.000
    endloop
  endfacet
  facet normal  0.000  0.000 -2.786
    outer loop
      vertex -3.717 31.124 20.000
      vertex  0.008 31.498 20.000
      vertex  3.733 31.124 20.000
    endloop
  endfacet
  facet normal  0.000  0.000 -40.496
    outer loop
      vertex  3.733 31.124 20.000
      vertex 10.250 29.694 20.000
      vertex 23.745 20.519 20.000
    endloop
  endfacet
  facet normal  0.000  0.000 -2.679
    outer loop
      vertex 23.745 20.519 20.000
      vertex 26.094 17.655 20.000
      vertex 27.838 14.388 20.000
    endloop
  endfacet
  facet normal  0.000  0.000 -1.799
    outer loop
      vertex -18.839 -25.149 20.000
      vertex -21.714 -22.796 20.000
      vertex -23.728 -20.522 20.000
    endloop
  endfacet
  facet normal  0.000  0.000 -1.920
    outer loop
      vertex -3.716 -31.128 20.000
      vertex -6.731 -30.761 20.000
      vertex -10.233 -29.698 20.000
    endloop
  endfacet
  facet normal  0.000  0.000 -17.580
    outer loop
      vertex -10.233 -29.698 20.000
      vertex -18.839 -25.149 20.000
      vertex -23.728 -20.522 20.000
    endloop
  endfacet
  facet normal  0.000  0.000 -2.786
    outer loop
      vertex  3.733 -31.128 20.000
      vertex  0.008 -31.502 20.000
      vertex -3.716 -31.128 20.000
    endloop
  endfacet
  facet normal 34.500 49.980 -0.270
    outer loop
      vertex -17.479 -26.196  0.000
      vertex -18.839 -25.149 20.000
      vertex -16.340 -26.874 20.000
    endloop
  endfacet
  facet normal  0.000  0.000 -1.797
    outer loop
      vertex -23.728 20.519 20.000
      vertex -21.714 22.793 20.000
      vertex -18.840 25.146 20.000
    endloop
  endfacet
  facet normal 34.940 -65.340  0.227
    outer loop
      vertex -17.480 26.192  0.000
      vertex -13.073 28.618 20.000
      vertex -16.340 26.871 20.000
    endloop
  endfacet
  facet normal  0.000  0.000 -3.475
    outer loop
      vertex -18.840 25.146 20.000
      vertex -16.340 26.871 20.000
      vertex -10.233 29.695 20.000
    endloop
  endfacet
  facet normal 21.260 -70.020  0.157
    outer loop
      vertex -12.035 29.103  0.000
      vertex -6.732 30.758 20.000
      vertex -10.233 29.695 20.000
    endloop
  endfacet
  facet normal  7.320 -60.300 -0.158
    outer loop
      vertex -6.200 30.875  0.000
      vertex -3.717 31.124 20.000
      vertex -6.732 30.758 20.000
    endloop
  endfacet
  facet normal 21.540 -56.800 -0.259
    outer loop
      vertex -12.035 29.103  0.000
      vertex -10.233 29.695 20.000
      vertex -13.073 28.618 20.000
    endloop
  endfacet
  facet normal 58.220 108.900  0.376
    outer loop
      vertex -16.340 -26.874 20.000
      vertex -12.034 -29.107  0.000
      vertex -17.479 -26.196  0.000
    endloop
  endfacet
  facet normal 35.440 116.700  0.257
    outer loop
      vertex -10.233 -29.698 20.000
      vertex -6.199 -30.879  0.000
      vertex -12.034 -29.107  0.000
    endloop
  endfacet
  facet normal  0.000  0.000 766.799
    outer loop
      vertex  6.216 -30.879  0.000
      vertex  6.217 30.875  0.000
      vertex -6.200 30.875  0.000
    endloop
  endfacet
  facet normal  0.000  0.000  7.735
    outer loop
      vertex -6.199 -30.879  0.000
      vertex  0.008 -31.502  0.000
      vertex  6.216 -30.879  0.000
    endloop
  endfacet
  facet normal -53.800 -28.220 -0.120
    outer loop
      vertex 29.108 12.052  0.000
      vertex 29.249 11.698 20.000
      vertex 27.838 14.388 20.000
    endloop
  endfacet
  facet normal -70.900 -21.540  0.119
    outer loop
      vertex 29.108 12.052  0.000
      vertex 30.326  8.153 20.000
      vertex 29.249 11.698 20.000
    endloop
  endfacet
  facet normal  0.000  0.000 -17.778
    outer loop
      vertex 30.326  8.153 20.000
      vertex 31.416  1.517 20.000
      vertex 30.326 -8.157 20.000
    endloop
  endfacet
  facet normal  0.000  0.000 -2.107
    outer loop
      vertex 30.326 -8.157 20.000
      vertex 29.249 -11.703 20.000
      vertex 27.838 -14.392 20.000
    endloop
  endfacet
  facet normal  0.000  0.000 -2.679
    outer loop
      vertex 27.838 -14.392 20.000
      vertex 26.094 -17.659 20.000
      vertex 23.745 -20.523 20.000
    endloop
  endfacet
  facet normal  0.000  0.000 -40.505
    outer loop
      vertex 23.745 -20.523 20.000
      vertex 10.249 -29.699 20.000
      vertex  3.733 -31.128 20.000
    endloop
  endfacet
  facet normal  0.000  0.000 -40.506
    outer loop
      vertex -23.728 20.519 20.000
      vertex -10.233 29.695 20.000
      vertex -3.717 31.124 20.000
    endloop
  endfacet
  facet normal  7.480 -74.500 -0.001
    outer loop
      vertex -6.200 30.875  0.000
      vertex  0.008 31.498 20.000
      vertex -3.717 31.124 20.000
    endloop
  endfacet
  facet normal -7.480 -74.500  0.000
    outer loop
      vertex  0.008 31.498  0.000
      vertex  3.733 31.124 20.000
      vertex  0.008 31.498 20.000
    endloop
  endfacet
  facet normal  0.000  0.000 -1.926
    outer loop
      vertex  3.733 31.124 20.000
      vertex  6.748 30.758 20.000
      vertex 10.250 29.694 20.000
    endloop
  endfacet
  facet normal  0.000  0.000 -17.580
    outer loop
      vertex 10.250 29.694 20.000
      vertex 18.857 25.145 20.000
      vertex 23.745 20.519 20.000
    endloop
  endfacet
  facet normal -57.280 -46.980  0.063
    outer loop
      vertex 22.287 22.270  0.000
      vertex 26.094 17.655 20.000
      vertex 23.745 20.519 20.000
    endloop
  endfacet
  facet normal -65.340 -34.880 -0.077
    outer loop
      vertex 26.202 17.497  0.000
      vertex 27.838 14.388 20.000
      vertex 26.094 17.655 20.000
    endloop
  endfacet
  facet normal  7.340 60.300 -0.161
    outer loop
      vertex -6.199 -30.879  0.000
      vertex -6.731 -30.761 20.000
      vertex -3.716 -31.128 20.000
    endloop
  endfacet
  facet normal 21.260 70.040  0.152
    outer loop
      vertex -6.199 -30.879  0.000
      vertex -10.233 -29.698 20.000
      vertex -6.731 -30.761 20.000
    endloop
  endfacet
  facet normal  0.000  0.000 -3.477
    outer loop
      vertex -10.233 -29.698 20.000
      vertex -16.340 -26.874 20.000
      vertex -18.839 -25.149 20.000
    endloop
  endfacet
  facet normal -7.480 74.500 -0.001
    outer loop
      vertex  6.216 -30.879  0.000
      vertex  0.008 -31.502 20.000
      vertex  3.733 -31.128 20.000
    endloop
  endfacet
  facet normal  7.480 74.480  0.000
    outer loop
      vertex  0.008 -31.502  0.000
      vertex -3.716 -31.128 20.000
      vertex  0.008 -31.502 20.000
    endloop
  endfacet
  facet normal  0.000  0.000 -17.589
    outer loop
      vertex -23.728 20.519 20.000
      vertex -18.840 25.146 20.000
      vertex -10.233 29.695 20.000
    endloop
  endfacet
  facet normal  0.000  0.000 -1.443
    outer loop
      vertex -16.340 26.871 20.000
      vertex -13.073 28.618 20.000
      vertex -10.233 29.695 20.000
    endloop
  endfacet
  facet normal  0.000  0.000 -1.924
    outer loop
      vertex -10.233 29.695 20.000
      vertex -6.732 30.758 20.000
      vertex -3.717 31.124 20.000
    endloop
  endfacet
  facet normal 34.940 65.340  0.227
    outer loop
      vertex -12.034 -29.107  0.000
      vertex -16.340 -26.874 20.000
      vertex -13.073 -28.621 20.000
    endloop
  endfacet
  facet normal 21.540 56.800 -0.261
    outer loop
      vertex -12.034 -29.107  0.000
      vertex -13.073 -28.621 20.000
      vertex -10.233 -29.698 20.000
    endloop
  endfacet
  facet normal  0.000  0.000 696.580
    outer loop
      vertex  6.216 -30.879  0.000
      vertex 17.496 -26.196  0.000
      vertex  6.217 30.875  0.000
    endloop
  endfacet
  facet normal  0.000  0.000  7.736
    outer loop
      vertex  6.217 30.875  0.000
      vertex  0.008 31.498  0.000
      vertex -6.200 30.875  0.000
    endloop
  endfacet
  facet normal 12.460 124.140 -0.001
    outer loop
      vertex -3.716 -31.128 20.000
      vertex  0.008 -31.502  0.000
      vertex -6.199 -30.879  0.000
    endloop
  endfacet
  facet normal -12.460 124.160  0.000
    outer loop
      vertex  0.008 -31.502 20.000
      vertex  6.216 -30.879  0.000
      vertex  0.008 -31.502  0.000
    endloop
  endfacet
  facet normal -108.900 -58.120 -0.127
    outer loop
      vertex 27.838 14.388 20.000
      vertex 26.202 17.497  0.000
      vertex 29.108 12.052  0.000
    endloop
  endfacet
  facet normal -118.180 -35.900  0.198
    outer loop
      vertex 30.326  8.153 20.000
      vertex 29.108 12.052  0.000
      vertex 30.903  6.143  0.000
    endloop
  endfacet
  facet normal  0.000  0.000 -1.610
    outer loop
      vertex 30.326  8.153 20.000
      vertex 31.053  5.204 20.000
      vertex 31.416  1.517 20.000
    endloop
  endfacet
  facet normal  0.000  0.000 -3.311
    outer loop
      vertex 31.416  1.517 20.000
      vertex 31.416 -1.521 20.000
      vertex 30.326 -8.157 20.000
    endloop
  endfacet
  facet normal -70.920 21.540  0.119
    outer loop
      vertex 30.903 -6.147  0.000
      vertex 29.249 -11.703 20.000
      vertex 30.326 -8.157 20.000
    endloop
  endfacet
  facet normal -53.780 28.220 -0.120
    outer loop
      vertex 29.108 -12.057  0.000
      vertex 27.838 -14.392 20.000
      vertex 29.249 -11.703 20.000
    endloop
  endfacet
  facet normal -65.340 34.880 -0.077
    outer loop
      vertex 29.108 -12.057  0.000
      vertex 26.094 -17.659 20.000
      vertex 27.838 -14.392 20.000
    endloop
  endfacet
  facet normal -57.280 46.980  0.062
    outer loop
      vertex 26.201 -17.502  0.000
      vertex 23.745 -20.523 20.000
      vertex 26.094 -17.659 20.000
    endloop
  endfacet
  facet normal  0.000  0.000 -17.571
    outer loop
      vertex 23.745 -20.523 20.000
      vertex 18.856 -25.149 20.000
      vertex 10.249 -29.699 20.000
    endloop
  endfacet
  facet normal  0.000  0.000 -1.924
    outer loop
      vertex 10.249 -29.699 20.000
      vertex  6.748 -30.762 20.000
      vertex  3.733 -31.128 20.000
    endloop
  endfacet
  facet normal 12.460 -124.160  0.000
    outer loop
      vertex  0.008 31.498 20.000
      vertex -6.200 30.875  0.000
      vertex  0.008 31.498  0.000
    endloop
  endfacet
  facet normal -12.460 -124.180 -0.001
    outer loop
      vertex  3.733 31.124 20.000
      vertex  0.008 31.498  0.000
      vertex  6.217 30.875  0.000
    endloop
  endfacet
  facet normal -7.320 -60.300 -0.158
    outer loop
      vertex  6.217 30.875  0.000
      vertex  6.748 30.758 20.000
      vertex  3.733 31.124 20.000
    endloop
  endfacet
  facet normal -21.280 -70.040  0.155
    outer loop
      vertex  6.217 30.875  0.000
      vertex 10.250 29.694 20.000
      vertex  6.748 30.758 20.000
    endloop
  endfacet
  facet normal  0.000  0.000 -3.483
    outer loop
      vertex 10.250 29.694 20.000
      vertex 16.357 26.871 20.000
      vertex 18.857 25.145 20.000
    endloop
  endfacet
  facet normal  0.000  0.000 -1.794
    outer loop
      vertex 18.857 25.145 20.000
      vertex 21.731 22.792 20.000
      vertex 23.745 20.519 20.000
    endloop
  endfacet
  facet normal -95.460 -78.300  0.103
    outer loop
      vertex 26.094 17.655 20.000
      vertex 22.287 22.270  0.000
      vertex 26.202 17.497  0.000
    endloop
  endfacet
  facet normal -45.460 -40.280 -0.212
    outer loop
      vertex 22.287 22.270  0.000
      vertex 23.745 20.519 20.000
      vertex 21.731 22.792 20.000
    endloop
  endfacet
  facet normal  0.000  0.000 -1.443
    outer loop
      vertex -10.233 -29.698 20.000
      vertex -13.073 -28.621 20.000
      vertex -16.340 -26.874 20.000
    endloop
  endfacet
  facet normal -7.320 60.300 -0.158
    outer loop
      vertex  6.216 -30.879  0.000
      vertex  3.733 -31.128 20.000
      vertex  6.748 -30.762 20.000
    endloop
  endfacet
  facet normal  0.000  0.000  7.337
    outer loop
      vertex  6.216 -30.879  0.000
      vertex 12.051 -29.107  0.000
      vertex 17.496 -26.196  0.000
    endloop
  endfacet
  facet normal  0.000  0.000 590.941
    outer loop
      vertex 17.496 -26.196  0.000
      vertex 17.497 26.192  0.000
      vertex  6.217 30.875  0.000
    endloop
  endfacet
  facet normal  0.000  0.000 22.131
    outer loop
      vertex 29.108 12.052  0.000
      vertex 26.202 17.497  0.000
      vertex 17.497 26.192  0.000
    endloop
  endfacet
  facet normal  0.000  0.000  7.455
    outer loop
      vertex 31.508 -0.002  0.000
      vertex 30.903  6.143  0.000
      vertex 29.108 12.052  0.000
    endloop
  endfacet
  facet normal -58.980 -14.540 -0.240
    outer loop
      vertex 30.903  6.143  0.000
      vertex 31.053  5.204 20.000
      vertex 30.326  8.153 20.000
    endloop
  endfacet
  facet normal -73.740 -7.260  0.212
    outer loop
      vertex 30.903  6.143  0.000
      vertex 31.416  1.517 20.000
      vertex 31.053  5.204 20.000
    endloop
  endfacet
  facet normal -60.760  0.000 -0.279
    outer loop
      vertex 31.508 -0.002  0.000
      vertex 31.416 -1.521 20.000
      vertex 31.416  1.517 20.000
    endloop
  endfacet
  facet normal  0.000  0.000 -1.610
    outer loop
      vertex 31.416 -1.521 20.000
      vertex 31.053 -5.208 20.000
      vertex 30.326 -8.157 20.000
    endloop
  endfacet
  facet normal -118.200 35.900  0.198
    outer loop
      vertex 29.249 -11.703 20.000
      vertex 30.903 -6.147  0.000
      vertex 29.108 -12.057  0.000
    endloop
  endfacet
  facet normal -58.980 14.540 -0.240
    outer loop
      vertex 30.903 -6.147  0.000
      vertex 30.326 -8.157 20.000
      vertex 31.053 -5.208 20.000
    endloop
  endfacet
  facet normal -108.900 58.140 -0.126
    outer loop
      vertex 26.094 -17.659 20.000
      vertex 29.108 -12.057  0.000
      vertex 26.201 -17.502  0.000
    endloop
  endfacet
  facet normal -95.440 78.300  0.107
    outer loop
      vertex 23.745 -20.523 20.000
      vertex 26.201 -17.502  0.000
      vertex 22.286 -22.274  0.000
    endloop
  endfacet
  facet normal  0.000  0.000 -1.791
    outer loop
      vertex 23.745 -20.523 20.000
      vertex 21.730 -22.796 20.000
      vertex 18.856 -25.149 20.000
    endloop
  endfacet
  facet normal  0.000  0.000 -3.481
    outer loop
      vertex 18.856 -25.149 20.000
      vertex 16.356 -26.875 20.000
      vertex 10.249 -29.699 20.000
    endloop
  endfacet
  facet normal -21.260 70.020  0.157
    outer loop
      vertex 12.051 -29.107  0.000
      vertex  6.748 -30.762 20.000
      vertex 10.249 -29.699 20.000
    endloop
  endfacet
  facet normal -35.440 -116.700  0.255
    outer loop
      vertex 10.250 29.694 20.000
      vertex  6.217 30.875  0.000
      vertex 12.052 29.103  0.000
    endloop
  endfacet
  facet normal  0.000  0.000 -1.440
    outer loop
      vertex 10.250 29.694 20.000
      vertex 13.090 28.617 20.000
      vertex 16.357 26.871 20.000
    endloop
  endfacet
  facet normal -34.520 -50.000 -0.270
    outer loop
      vertex 17.497 26.192  0.000
      vertex 18.857 25.145 20.000
      vertex 16.357 26.871 20.000
    endloop
  endfacet
  facet normal -47.060 -57.480  0.191
    outer loop
      vertex 17.497 26.192  0.000
      vertex 21.731 22.792 20.000
      vertex 18.857 25.145 20.000
    endloop
  endfacet
  facet normal  0.000  0.000  7.508
    outer loop
      vertex 26.202 17.497  0.000
      vertex 22.287 22.270  0.000
      vertex 17.497 26.192  0.000
    endloop
  endfacet
  facet normal -78.440 -95.800  0.320
    outer loop
      vertex 21.731 22.792 20.000
      vertex 17.497 26.192  0.000
      vertex 22.287 22.270  0.000
    endloop
  endfacet
  facet normal -35.440 116.700  0.260
    outer loop
      vertex  6.748 -30.762 20.000
      vertex 12.051 -29.107  0.000
      vertex  6.216 -30.879  0.000
    endloop
  endfacet
  facet normal -58.220 108.900  0.384
    outer loop
      vertex 13.090 -28.622 20.000
      vertex 17.496 -26.196  0.000
      vertex 12.051 -29.107  0.000
    endloop
  endfacet
  facet normal  0.000  0.000 608.291
    outer loop
      vertex 17.496 -26.196  0.000
      vertex 29.108 12.052  0.000
      vertex 17.497 26.192  0.000
    endloop
  endfacet
  facet normal  0.000  0.000  7.337
    outer loop
      vertex 17.497 26.192  0.000
      vertex 12.052 29.103  0.000
      vertex  6.217 30.875  0.000
    endloop
  endfacet
  facet normal -122.900 -12.100  0.354
    outer loop
      vertex 31.416  1.517 20.000
      vertex 30.903  6.143  0.000
      vertex 31.508 -0.002  0.000
    endloop
  endfacet
  facet normal  0.000  0.000 57.862
    outer loop
      vertex 29.108 -12.057  0.000
      vertex 31.508 -0.002  0.000
      vertex 29.108 12.052  0.000
    endloop
  endfacet
  facet normal -73.740  7.260  0.212
    outer loop
      vertex 31.508 -0.002  0.000
      vertex 31.053 -5.208 20.000
      vertex 31.416 -1.521 20.000
    endloop
  endfacet
  facet normal  0.000  0.000  7.455
    outer loop
      vertex 29.108 -12.057  0.000
      vertex 30.903 -6.147  0.000
      vertex 31.508 -0.002  0.000
    endloop
  endfacet
  facet normal -122.900 12.100  0.354
    outer loop
      vertex 31.053 -5.208 20.000
      vertex 31.508 -0.002  0.000
      vertex 30.903 -6.147  0.000
    endloop
  endfacet
  facet normal  0.000  0.000 22.125
    outer loop
      vertex 17.496 -26.196  0.000
      vertex 26.201 -17.502  0.000
      vertex 29.108 -12.057  0.000
    endloop
  endfacet
  facet normal  0.000  0.000  7.503
    outer loop
      vertex 17.496 -26.196  0.000
      vertex 22.286 -22.274  0.000
      vertex 26.201 -17.502  0.000
    endloop
  endfacet
  facet normal -45.460 40.300 -0.212
    outer loop
      vertex 22.286 -22.274  0.000
      vertex 21.730 -22.796 20.000
      vertex 23.745 -20.523 20.000
    endloop
  endfacet
  facet normal -47.060 57.480  0.192
    outer loop
      vertex 22.286 -22.274  0.000
      vertex 18.856 -25.149 20.000
      vertex 21.730 -22.796 20.000
    endloop
  endfacet
  facet normal -34.520 50.000 -0.270
    outer loop
      vertex 17.496 -26.196  0.000
      vertex 16.356 -26.875 20.000
      vertex 18.856 -25.149 20.000
    endloop
  endfacet
  facet normal  0.000  0.000 -1.446
    outer loop
      vertex 16.356 -26.875 20.000
      vertex 13.090 -28.622 20.000
      vertex 10.249 -29.699 20.000
    endloop
  endfacet
  facet normal -21.540 56.820 -0.259
    outer loop
      vertex 12.051 -29.107  0.000
      vertex 10.249 -29.699 20.000
      vertex 13.090 -28.622 20.000
    endloop
  endfacet
  facet normal -21.540 -56.800 -0.262
    outer loop
      vertex 12.052 29.103  0.000
      vertex 13.090 28.617 20.000
      vertex 10.250 29.694 20.000
    endloop
  endfacet
  facet normal -34.920 -65.340  0.225
    outer loop
      vertex 12.052 29.103  0.000
      vertex 16.357 26.871 20.000
      vertex 13.090 28.617 20.000
    endloop
  endfacet
  facet normal -58.220 -108.900  0.379
    outer loop
      vertex 16.357 26.871 20.000
      vertex 12.052 29.103  0.000
      vertex 17.497 26.192  0.000
    endloop
  endfacet
  facet normal -34.940 65.320  0.226
    outer loop
      vertex 17.496 -26.196  0.000
      vertex 13.090 -28.622 20.000
      vertex 16.356 -26.875 20.000
    endloop
  endfacet
  facet normal  0.000  0.000 279.954
    outer loop
      vertex 17.496 -26.196  0.000
      vertex 29.108 -12.057  0.000
      vertex 29.108 12.052  0.000
    endloop
  endfacet
  facet normal -78.440 95.800  0.319
    outer loop
      vertex 18.856 -25.149 20.000
      vertex 22.286 -22.274  0.000
      vertex 17.496 -26.196  0.000
    endloop
  endfacet
endsolid c:\devel\machine_def\machine6.stl
